<svg xmlns="http://www.w3.org/2000/svg" viewBox="0 0 21 21"><defs><style>.cls-1{fill:#333;fill-rule:evenodd;}</style></defs><title>anims_1</title><g id="Layer_2" data-name="Layer 2"><g id="search"><g id="params"><path class="cls-1" d="M5.25,4V2A2,2,0,0,0,1.31,2V4a3.26,3.26,0,0,0,0,5.22V19a2,2,0,0,0,3.94,0V9.17A3.26,3.26,0,0,0,5.25,4ZM2.63,2a.66.66,0,0,1,.65-.66A.67.67,0,0,1,3.94,2V3.35a2.84,2.84,0,0,0-.66-.07,2.81,2.81,0,0,0-.65.07ZM3.94,19a.67.67,0,0,1-.66.66A.66.66,0,0,1,2.63,19V9.78a3.61,3.61,0,0,0,1.31,0ZM5.16,7.11l0,.11a1.83,1.83,0,0,1-.25.48h0a1.73,1.73,0,0,1-.4.41h0a2,2,0,0,1-.52.28,2.08,2.08,0,0,1-.66.12,2,2,0,0,1-.65-.12,2.07,2.07,0,0,1-.53-.28h0a1.73,1.73,0,0,1-.4-.41h0a2.73,2.73,0,0,1-.25-.48l0-.11a2,2,0,0,1-.09-.55A2,2,0,0,1,1.4,6l0-.1a2.51,2.51,0,0,1,.25-.49h0A2.21,2.21,0,0,1,2.09,5h0a2.1,2.1,0,0,1,.53-.29,2,2,0,0,1,.65-.12,2.08,2.08,0,0,1,.66.12A2,2,0,0,1,4.46,5h0a2.21,2.21,0,0,1,.4.41h0a1.74,1.74,0,0,1,.25.49l0,.1a2,2,0,0,1,.09.55A2,2,0,0,1,5.16,7.11Z"/><path class="cls-1" d="M19.69,4V2a2,2,0,0,0-3.94,0V4a3.26,3.26,0,0,0,0,5.22V19a2,2,0,0,0,3.94,0V9.17a3.26,3.26,0,0,0,0-5.22ZM17.06,2a.66.66,0,1,1,1.32,0V3.35a3,3,0,0,0-.66-.07,2.84,2.84,0,0,0-.66.07ZM18.38,19a.66.66,0,0,1-1.32,0V9.78a3.52,3.52,0,0,0,.66.06,3.68,3.68,0,0,0,.66-.06ZM19.6,7.11l0,.11a2.73,2.73,0,0,1-.25.48h0a1.73,1.73,0,0,1-.4.41h0a2.18,2.18,0,0,1-.52.28,1.88,1.88,0,0,1-1.32,0,2,2,0,0,1-.52-.28h0a1.73,1.73,0,0,1-.4-.41h0a1.83,1.83,0,0,1-.25-.48l0-.11a2,2,0,0,1-.09-.55A2,2,0,0,1,15.84,6l0-.1a1.74,1.74,0,0,1,.25-.49h0a2.21,2.21,0,0,1,.4-.41h0a2,2,0,0,1,.52-.29,1.87,1.87,0,0,1,1.32,0A2.22,2.22,0,0,1,18.9,5h0a2.21,2.21,0,0,1,.4.41h0a2.51,2.51,0,0,1,.25.49l0,.1a2,2,0,0,1,.09.55A2,2,0,0,1,19.6,7.11Z"/><path class="cls-1" d="M12.47,11.83V2A2,2,0,0,0,8.53,2v9.86a3.26,3.26,0,0,0,0,5.22v2a2,2,0,0,0,3.94,0v-2a3.26,3.26,0,0,0,0-5.22ZM9.84,2a.66.66,0,0,1,1.32,0v9.25a3.66,3.66,0,0,0-1.32,0ZM11.16,19a.66.66,0,0,1-1.32,0V17.65a3.15,3.15,0,0,0,1.32,0Zm1.22-4,0,.1a1.74,1.74,0,0,1-.25.49h0a2.21,2.21,0,0,1-.4.41h0a1.75,1.75,0,0,1-.52.28,1.74,1.74,0,0,1-1.32,0A1.75,1.75,0,0,1,9.32,16h0a2.21,2.21,0,0,1-.4-.41h0a1.74,1.74,0,0,1-.25-.49l0-.1a2,2,0,0,1-.09-.55,1.92,1.92,0,0,1,.09-.55l0-.11a1.83,1.83,0,0,1,.25-.48h0a1.73,1.73,0,0,1,.4-.41h0a2,2,0,0,1,.52-.28,1.87,1.87,0,0,1,1.32,0,2,2,0,0,1,.52.28h0a1.73,1.73,0,0,1,.4.41h0a1.83,1.83,0,0,1,.25.48l0,.11a1.92,1.92,0,0,1,.09.55A2,2,0,0,1,12.38,15Z"/></g></g></g></svg>