<?xml version="1.0" encoding="utf-8"?>
<!-- Generator: Adobe Illustrator 24.3.0, SVG Export Plug-In . SVG Version: 6.00 Build 0)  -->
<svg version="1.1" id="Solid" xmlns="http://www.w3.org/2000/svg" xmlns:xlink="http://www.w3.org/1999/xlink" x="0px" y="0px"
	 viewBox="0 0 512 512" style="enable-background:new 0 0 512 512;" xml:space="preserve">
<style type="text/css">
	.st0{fill:#141414;}
</style>
<path class="st0" d="M376,191c-5.3,0-10.4-2.1-14.1-5.9L256,79.3L150.1,185.1c-7.8,7.8-20.5,7.8-28.3,0c-7.8-7.8-7.8-20.5,0-28.3
	l120-120c7.8-7.8,20.5-7.8,28.3,0c0,0,0,0,0,0l120,120c7.8,7.8,7.8,20.5,0,28.3C386.4,188.9,381.3,191,376,191z M270.1,475.2
	l120-120c7.8-7.8,7.8-20.5,0-28.3c-7.8-7.8-20.5-7.8-28.3,0L256,432.7L150.1,326.9c-7.8-7.8-20.5-7.8-28.3,0
	c-7.8,7.8-7.8,20.5,0,28.3l120,120C249.7,483,262.3,483,270.1,475.2C270.1,475.2,270.1,475.2,270.1,475.2z"/>
</svg>
